<svg width="327" height="49" viewBox="0 0 327 49" fill="none" xmlns="http://www.w3.org/2000/svg">
<g clip-path="url(#clip0_2482_1196)">
<path fill-rule="evenodd" clip-rule="evenodd" d="M170.435 1.74508H170.892V49H170.435V1.74508Z" fill="#383535"/>
<path d="M170.937 1.791H170.48L170.389 1.74508H170.846L170.937 1.791ZM170.8 1.69916H170.937V1.74508L170.8 1.69916ZM170.8 48.9541V1.69916L170.937 1.74508V49L170.8 48.9541ZM170.343 48.9541H170.8L170.892 49H170.435L170.343 48.9541ZM170.48 49H170.343V48.9541L170.48 49ZM170.48 1.791V49L170.343 48.9541V1.69916L170.48 1.791Z" fill="#292829"/>
<path d="M185.291 17.359V31.0441H183.234V17.359H185.291Z" fill="#2B2D30"/>
<path d="M188.537 31.044V16.4405L198.456 26.865V17.3589H200.513V31.8707L190.594 21.492V31.09H188.537V31.044Z" fill="#2B2D30"/>
<path d="M203.805 31.0441V17.359H206.685C208.056 17.359 209.153 17.4967 209.93 17.7723C210.799 18.0478 211.576 18.507 212.262 19.15C213.679 20.4358 214.364 22.135 214.364 24.2474C214.364 26.3599 213.633 28.059 212.17 29.3449C211.439 29.9878 210.662 30.4471 209.839 30.7226C209.107 30.9981 208.01 31.09 206.639 31.09H203.805V31.0441ZM205.862 29.1153H206.776C207.69 29.1153 208.467 29.0234 209.062 28.8397C209.656 28.6101 210.205 28.2887 210.707 27.8754C211.713 26.9569 212.216 25.7629 212.216 24.2474C212.216 22.732 211.713 21.538 210.707 20.6195C209.793 19.7929 208.467 19.3796 206.73 19.3796H205.816V29.1153H205.862Z" fill="#2B2D30"/>
<path d="M218.936 17.359V31.0441H216.879V17.359H218.936Z" fill="#2B2D30"/>
<path d="M230.227 27.7376H224.375L222.867 31.044H220.673L227.392 16.4864L233.884 31.044H231.644L230.227 27.7376ZM229.404 25.8088L227.392 21.1706L225.29 25.8088H229.404Z" fill="#2B2D30"/>
<path d="M235.941 16.7619L237.723 17.4508L235.209 22.5023L233.884 21.9513L235.941 16.7619Z" fill="#2B2D30"/>
<path d="M248.054 19.4255L246.409 20.4358C246.089 19.8847 245.814 19.5173 245.54 19.3796C245.266 19.1959 244.855 19.104 244.397 19.104C243.849 19.104 243.346 19.2877 242.98 19.6092C242.615 19.9306 242.432 20.344 242.432 20.8032C242.432 21.492 242.935 21.9972 243.895 22.4105L245.266 22.9616C246.363 23.4208 247.186 23.9719 247.689 24.6148C248.192 25.2577 248.466 26.0384 248.466 27.0028C248.466 28.2427 248.054 29.299 247.232 30.1256C246.409 30.9522 245.357 31.3655 244.123 31.3655C242.889 31.3655 241.975 30.9981 241.198 30.3093C240.42 29.6204 239.963 28.6101 239.78 27.3243L241.883 26.865C241.975 27.6457 242.157 28.2427 242.386 28.5183C242.797 29.1153 243.437 29.3908 244.26 29.3908C244.9 29.3908 245.449 29.1612 245.86 28.7479C246.272 28.3346 246.5 27.7835 246.5 27.0947C246.5 26.8191 246.454 26.5895 246.409 26.3599C246.317 26.1303 246.226 25.9466 246.043 25.7629C245.86 25.5792 245.677 25.3955 245.449 25.2577C245.22 25.074 244.9 24.9363 244.58 24.7985L243.255 24.2474C241.38 23.4667 240.466 22.3187 240.466 20.7573C240.466 19.747 240.878 18.8744 241.655 18.1856C242.432 17.4967 243.392 17.1293 244.58 17.1293C245.952 17.0834 247.186 17.8641 248.054 19.4255Z" fill="#2B2D30"/>
<path d="M276.762 18.2315V10.3327H277.676V17.313H280.648V18.2315H276.762Z" fill="#2B2D30"/>
<path d="M281.516 10.9297C281.516 10.746 281.562 10.6082 281.699 10.5164C281.836 10.4246 281.973 10.3327 282.156 10.3327C282.339 10.3327 282.476 10.3786 282.567 10.5164C282.659 10.6542 282.75 10.7919 282.75 10.9756C282.75 11.1593 282.705 11.2971 282.567 11.3889C282.43 11.4808 282.293 11.5726 282.11 11.5726C281.928 11.5726 281.79 11.5267 281.653 11.3889C281.516 11.2512 281.516 11.0675 281.516 10.9297ZM281.745 18.2315V13.2718H282.613V18.2315H281.745Z" fill="#2B2D30"/>
<path d="M283.847 17.4049L284.579 16.8997C284.716 17.1753 284.899 17.3589 285.082 17.4967C285.31 17.6345 285.539 17.6804 285.813 17.6804C286.087 17.6804 286.316 17.6345 286.499 17.4967C286.682 17.3589 286.773 17.1753 286.773 16.9456C286.773 16.7619 286.727 16.6242 286.59 16.5323C286.453 16.4405 286.27 16.3027 285.996 16.2109L285.859 16.1649C284.67 15.7516 284.076 15.2465 284.076 14.6036C284.076 14.1443 284.259 13.8229 284.579 13.5473C284.899 13.2718 285.31 13.134 285.859 13.134C286.27 13.134 286.636 13.2259 286.956 13.4096C287.276 13.5933 287.459 13.8229 287.596 14.1443L286.91 14.5576C286.819 14.328 286.682 14.1443 286.453 14.0525C286.27 13.9147 286.042 13.8688 285.767 13.8688C285.539 13.8688 285.31 13.9606 285.173 14.0984C285.036 14.2362 284.945 14.4199 284.945 14.6495C284.945 14.9709 285.265 15.2006 285.904 15.4302C286.042 15.4761 286.133 15.522 286.179 15.522C286.727 15.7057 287.093 15.8894 287.276 16.119C287.504 16.3486 287.596 16.6242 287.596 16.9916C287.596 17.4508 287.413 17.8182 287.093 18.1396C286.773 18.4152 286.316 18.553 285.813 18.553C285.356 18.553 284.945 18.4611 284.625 18.2774C284.259 18.0019 284.03 17.7263 283.847 17.4049Z" fill="#2B2D30"/>
<path d="M288.967 14.0066H288.053V13.3177H288.967V11.343H289.836V13.3177H290.75V14.0066H289.836V18.2315H288.967V14.0066Z" fill="#2B2D30"/>
<path d="M296.053 15.8894H292.167V15.9813C292.167 16.5323 292.304 16.9456 292.624 17.2671C292.944 17.5886 293.31 17.7723 293.813 17.7723C294.133 17.7723 294.453 17.6804 294.727 17.4967C295.001 17.313 295.23 17.0375 295.413 16.6701L296.053 17.0834C295.824 17.5426 295.504 17.8641 295.093 18.0937C294.681 18.3233 294.27 18.4152 293.767 18.4152C293.036 18.4152 292.396 18.1856 291.938 17.6804C291.481 17.1753 291.253 16.5323 291.253 15.7057C291.253 14.925 291.481 14.2821 291.938 13.8229C292.396 13.3177 292.99 13.0881 293.721 13.0881C294.453 13.0881 295.047 13.3177 295.458 13.7769C295.87 14.2362 296.098 14.8791 296.098 15.7057V15.8894H296.053ZM295.184 15.2006C295.138 14.7873 295.001 14.4199 294.773 14.1903C294.544 13.9606 294.178 13.8229 293.721 13.8229C293.31 13.8229 292.99 13.9606 292.716 14.1903C292.441 14.4199 292.304 14.7873 292.258 15.2006H295.184Z" fill="#2B2D30"/>
<path d="M301.904 9.87348V18.2315H301.081V17.313C300.898 17.6804 300.624 17.956 300.35 18.1396C300.03 18.3233 299.71 18.4152 299.298 18.4152C298.613 18.4152 298.018 18.1856 297.607 17.6804C297.195 17.1753 296.967 16.5323 296.967 15.7516C296.967 14.925 297.195 14.2821 297.607 13.8229C298.018 13.3636 298.613 13.0881 299.298 13.0881C299.71 13.0881 300.075 13.1799 300.35 13.3636C300.67 13.5473 300.898 13.8229 301.081 14.1903V9.82755H301.904V9.87348ZM301.081 15.7976C301.081 15.2465 300.944 14.7873 300.624 14.4658C300.304 14.1443 299.938 13.9606 299.435 13.9606C298.933 13.9606 298.567 14.0984 298.247 14.4199C297.927 14.7413 297.835 15.1546 297.835 15.7057C297.835 16.3027 297.973 16.8079 298.247 17.1293C298.521 17.4508 298.933 17.6345 299.435 17.6345C299.938 17.6345 300.35 17.4508 300.67 17.1293C300.944 16.8079 301.081 16.3486 301.081 15.7976Z" fill="#2B2D30"/>
<path d="M276.762 30.2174V22.3187H278.59C279.139 22.3187 279.505 22.3646 279.733 22.4105C279.962 22.4564 280.19 22.5942 280.373 22.732C280.602 22.9157 280.785 23.1453 280.922 23.4667C281.059 23.7882 281.105 24.1097 281.105 24.477C281.105 25.12 280.922 25.6251 280.556 25.9466C280.19 26.268 279.688 26.4517 278.956 26.4517H278.773L281.79 30.2174H280.648L277.768 26.4517H277.631V30.2174H276.762ZM277.676 23.0993V25.7629H278.408C279.139 25.7629 279.642 25.671 279.87 25.4874C280.099 25.3037 280.236 24.9822 280.236 24.477C280.236 23.9719 280.099 23.6045 279.87 23.4208C279.596 23.2371 279.139 23.0993 278.408 23.0993H277.676Z" fill="#2B2D30"/>
<path d="M286.956 27.8754H283.07V27.9672C283.07 28.5183 283.207 28.9316 283.527 29.2531C283.847 29.5745 284.213 29.7582 284.716 29.7582C285.036 29.7582 285.356 29.6664 285.63 29.4827C285.904 29.299 286.133 29.0234 286.316 28.6561L286.956 29.0694C286.727 29.5286 286.407 29.8501 285.996 30.0797C285.63 30.3093 285.173 30.4011 284.67 30.4011C283.939 30.4011 283.299 30.1715 282.842 29.6664C282.385 29.1612 282.156 28.5183 282.156 27.6917C282.156 26.911 282.385 26.268 282.842 25.8088C283.299 25.3037 283.893 25.074 284.624 25.074C285.356 25.074 285.95 25.3037 286.362 25.7629C286.773 26.2221 287.002 26.865 287.002 27.6917V27.8754H286.956ZM286.042 27.1865C285.996 26.7732 285.859 26.4058 285.63 26.1762C285.402 25.9466 285.036 25.8088 284.579 25.8088C284.167 25.8088 283.847 25.9466 283.573 26.1762C283.299 26.4058 283.162 26.7732 283.116 27.1865H286.042Z" fill="#2B2D30"/>
<path d="M292.807 25.3037V30.2634H291.984V29.3449C291.801 29.7123 291.527 29.9878 291.207 30.1715C290.887 30.3552 290.567 30.4471 290.156 30.4471C289.47 30.4471 288.876 30.2174 288.464 29.7123C288.053 29.2071 287.824 28.5642 287.824 27.7835C287.824 26.9569 288.053 26.314 288.464 25.8547C288.876 25.3955 289.424 25.12 290.156 25.12C290.567 25.12 290.933 25.2118 291.207 25.3955C291.527 25.5792 291.756 25.8547 291.938 26.2221V25.3037H292.807ZM291.984 27.8294C291.984 27.2784 291.847 26.8191 291.527 26.4977C291.207 26.1762 290.841 25.9925 290.339 25.9925C289.836 25.9925 289.424 26.1303 289.15 26.4517C288.876 26.7732 288.739 27.1865 288.739 27.7835C288.739 28.3805 288.876 28.8397 289.15 29.1612C289.424 29.4827 289.836 29.6664 290.384 29.6664C290.887 29.6664 291.298 29.5286 291.573 29.2071C291.847 28.8857 291.984 28.3805 291.984 27.8294Z" fill="#2B2D30"/>
<path d="M294.498 30.2174V21.8594H295.367V30.2174H294.498Z" fill="#2B2D30"/>
<path d="M300.487 30.2174V22.3187H304.647V23.1912H301.447V25.4414H304.647V26.314H301.447V29.3449H304.647V30.2174H300.487Z" fill="#2B2D30"/>
<path d="M305.607 29.3908L306.338 28.8857C306.475 29.1612 306.658 29.3449 306.841 29.4827C307.069 29.6204 307.298 29.6664 307.572 29.6664C307.847 29.6664 308.075 29.6204 308.258 29.4827C308.441 29.3449 308.532 29.1612 308.532 28.9316C308.532 28.7479 308.486 28.6101 308.349 28.5183C308.212 28.4264 308.029 28.2887 307.755 28.1968L307.618 28.1509C306.429 27.7376 305.835 27.2324 305.835 26.5895C305.835 26.1303 306.018 25.8088 306.338 25.5333C306.658 25.2577 307.069 25.12 307.618 25.12C308.029 25.12 308.395 25.2118 308.715 25.3955C309.035 25.5792 309.218 25.8088 309.355 26.1303L308.669 26.5436C308.578 26.314 308.441 26.1303 308.212 26.0384C308.029 25.9007 307.801 25.8547 307.526 25.8547C307.298 25.8547 307.069 25.9466 306.932 26.0844C306.795 26.2221 306.704 26.4058 306.704 26.6354C306.704 26.9569 307.024 27.1865 307.664 27.4161C307.801 27.462 307.892 27.508 307.938 27.508C308.486 27.6917 308.852 27.8754 309.035 28.105C309.264 28.3346 309.355 28.6101 309.355 28.9775C309.355 29.4367 309.172 29.8041 308.852 30.1256C308.532 30.4011 308.075 30.5389 307.572 30.5389C307.115 30.5389 306.704 30.4471 306.384 30.2634C306.064 29.9878 305.789 29.7582 305.607 29.3908Z" fill="#2B2D30"/>
<path d="M310.726 25.9925H309.812V25.3037H310.726V23.283H311.595V25.2577H312.509V25.9466H311.595V30.1715H310.726V25.9925Z" fill="#2B2D30"/>
<path d="M318.04 25.3037V30.2634H317.218V29.3449C317.035 29.7123 316.76 29.9878 316.44 30.1715C316.12 30.3552 315.8 30.4471 315.389 30.4471C314.703 30.4471 314.109 30.2174 313.698 29.7123C313.286 29.2071 313.058 28.5642 313.058 27.7835C313.058 26.9569 313.286 26.314 313.698 25.8547C314.109 25.3955 314.658 25.12 315.389 25.12C315.8 25.12 316.166 25.2118 316.44 25.3955C316.76 25.5792 316.989 25.8547 317.172 26.2221V25.3037H318.04ZM317.218 27.8294C317.218 27.2784 317.08 26.8191 316.76 26.4977C316.44 26.1762 316.075 25.9925 315.572 25.9925C315.069 25.9925 314.658 26.1303 314.383 26.4517C314.109 26.7732 313.972 27.1865 313.972 27.7835C313.972 28.3805 314.109 28.8397 314.383 29.1612C314.658 29.4827 315.069 29.6664 315.618 29.6664C316.12 29.6664 316.532 29.5286 316.806 29.2071C317.08 28.7938 317.218 28.3805 317.218 27.8294Z" fill="#2B2D30"/>
<path d="M319.823 25.9925H318.909V25.3037H319.823V23.283H320.692V25.2577H321.606V25.9466H320.692V30.1715H319.823V25.9925Z" fill="#2B2D30"/>
<path d="M326.954 27.8754H323.069V27.9672C323.069 28.5183 323.206 28.9316 323.526 29.2531C323.846 29.5745 324.212 29.7582 324.714 29.7582C325.034 29.7582 325.354 29.6664 325.629 29.4827C325.903 29.299 326.132 29.0234 326.314 28.6561L326.954 29.0694C326.726 29.5286 326.406 29.8501 325.994 30.0797C325.583 30.3093 325.172 30.4011 324.669 30.4011C323.937 30.4011 323.297 30.1715 322.84 29.6664C322.383 29.1612 322.155 28.5183 322.155 27.6917C322.155 26.911 322.383 26.268 322.84 25.8088C323.297 25.3037 323.892 25.074 324.623 25.074C325.354 25.074 325.949 25.3037 326.36 25.7629C326.772 26.2221 327 26.865 327 27.6917V27.8754H326.954ZM326.04 27.1865C325.994 26.7732 325.857 26.4058 325.629 26.1762C325.4 25.9466 325.034 25.8088 324.577 25.8088C324.166 25.8088 323.846 25.9466 323.572 26.1762C323.297 26.4058 323.16 26.7732 323.115 27.1865H326.04Z" fill="#2B2D30"/>
<path d="M276.762 42.3871V34.4883H278.408C279.002 34.4883 279.413 34.5342 279.688 34.5801C279.962 34.6261 280.19 34.7638 280.373 34.9016C280.602 35.0853 280.83 35.3149 280.968 35.6364C281.105 35.9578 281.196 36.2334 281.196 36.6007C281.196 37.0141 281.105 37.3814 280.876 37.657C280.693 37.9325 280.373 38.1162 280.008 38.254C280.465 38.3458 280.83 38.5295 281.105 38.8969C281.379 39.2643 281.516 39.6776 281.516 40.2287C281.516 40.5501 281.47 40.8257 281.333 41.1471C281.196 41.4686 281.059 41.6982 280.876 41.8819C280.648 42.1115 280.373 42.2493 280.053 42.3411C279.733 42.433 279.185 42.4789 278.408 42.4789H276.762V42.3871ZM277.676 35.3149V37.9784H278.408C279.093 37.9784 279.55 37.8866 279.825 37.7029C280.099 37.5192 280.236 37.1978 280.236 36.7385C280.236 36.2334 280.099 35.866 279.87 35.6823C279.596 35.4986 279.139 35.3608 278.453 35.3608H277.676V35.3149ZM277.676 38.7132V41.6064H278.408C278.91 41.6064 279.276 41.6064 279.505 41.5605C279.733 41.5145 279.916 41.4686 280.053 41.3768C280.236 41.239 280.328 41.1012 280.419 40.9175C280.51 40.7338 280.556 40.5042 280.556 40.2287C280.556 39.9531 280.51 39.6776 280.373 39.4939C280.282 39.2643 280.099 39.1265 279.87 38.9888C279.733 38.8969 279.596 38.851 279.413 38.8051C279.23 38.7591 279.002 38.7591 278.636 38.7591H277.676V38.7132Z" fill="#2B2D30"/>
<path d="M282.842 42.3871V37.4274H283.573V38.4377C283.802 38.0244 284.03 37.7029 284.304 37.5192C284.579 37.3355 284.853 37.2437 285.219 37.2437C285.31 37.2437 285.402 37.2437 285.493 37.2896C285.584 37.3355 285.676 37.3355 285.767 37.3814L285.493 38.1621C285.402 38.1162 285.31 38.1162 285.219 38.0703C285.127 38.0703 285.036 38.0244 284.99 38.0244C284.533 38.0244 284.213 38.2081 283.984 38.5295C283.756 38.851 283.664 39.3561 283.664 39.9991V42.3871H282.842Z" fill="#2B2D30"/>
<path d="M286.316 39.9531C286.316 39.5858 286.362 39.2643 286.499 38.9428C286.636 38.6214 286.819 38.3458 287.093 38.0703C287.367 37.7948 287.642 37.6111 287.962 37.4733C288.282 37.3355 288.647 37.2896 289.013 37.2896C289.379 37.2896 289.699 37.3355 290.019 37.4733C290.339 37.6111 290.613 37.7948 290.887 38.0703C291.161 38.2999 291.344 38.6214 291.481 38.9428C291.619 39.2643 291.664 39.5858 291.664 39.9531C291.664 40.3205 291.619 40.642 291.481 40.9634C291.344 41.2849 291.161 41.5605 290.887 41.836C290.613 42.1115 290.339 42.2952 290.019 42.433C289.699 42.5708 289.379 42.6167 289.013 42.6167C288.647 42.6167 288.327 42.5708 287.962 42.433C287.642 42.2952 287.367 42.1115 287.093 41.836C286.819 41.5605 286.636 41.2849 286.499 40.9634C286.362 40.642 286.316 40.3205 286.316 39.9531ZM287.23 39.9531C287.23 40.4583 287.413 40.9175 287.733 41.2849C288.099 41.6523 288.51 41.836 289.013 41.836C289.516 41.836 289.927 41.6523 290.247 41.2849C290.613 40.9175 290.75 40.4583 290.75 39.9531C290.75 39.448 290.567 38.9888 290.247 38.6214C289.881 38.254 289.47 38.0703 289.013 38.0703C288.51 38.0703 288.099 38.254 287.733 38.6214C287.367 38.9888 287.23 39.4021 287.23 39.9531Z" fill="#2B2D30"/>
<path d="M292.99 42.3871V34.0291H293.813V39.6776L296.19 37.4274H297.333L294.864 39.6776L297.561 42.3411H296.373L293.858 39.7235V42.3411H292.99V42.3871Z" fill="#2B2D30"/>
<path d="M302.772 40.045H298.887V40.1368C298.887 40.6879 299.024 41.1012 299.344 41.4227C299.664 41.7441 300.03 41.9278 300.532 41.9278C300.852 41.9278 301.172 41.836 301.447 41.6523C301.721 41.4686 301.95 41.1931 302.132 40.8257L302.772 41.239C302.544 41.6982 302.224 42.0197 301.812 42.2493C301.447 42.4789 300.99 42.5708 300.487 42.5708C299.755 42.5708 299.115 42.3411 298.658 41.836C298.201 41.3308 297.973 40.6879 297.973 39.8613C297.973 39.0806 298.201 38.4377 298.658 37.9784C299.115 37.4733 299.71 37.2437 300.441 37.2437C301.172 37.2437 301.767 37.4733 302.178 37.9325C302.589 38.3918 302.818 39.0347 302.818 39.8613V40.045H302.772ZM301.904 39.3561C301.858 38.9428 301.721 38.5754 301.492 38.3458C301.264 38.1162 300.898 37.9784 300.441 37.9784C300.03 37.9784 299.71 38.1162 299.435 38.3458C299.161 38.5754 299.024 38.9428 298.978 39.3561H301.904Z" fill="#2B2D30"/>
<path d="M304.052 42.3871V37.4274H304.784V38.4377C305.012 38.0244 305.241 37.7029 305.515 37.5192C305.789 37.3355 306.064 37.2437 306.429 37.2437C306.521 37.2437 306.612 37.2437 306.704 37.2896C306.795 37.3355 306.887 37.3355 306.978 37.3814L306.704 38.1621C306.612 38.1162 306.521 38.1162 306.429 38.0703C306.338 38.0703 306.247 38.0244 306.201 38.0244C305.744 38.0244 305.424 38.2081 305.195 38.5295C304.967 38.851 304.875 39.3561 304.875 39.9991V42.3871H304.052Z" fill="#2B2D30"/>
<path d="M312.509 37.4733V42.433H311.686V41.5145C311.503 41.8819 311.229 42.1575 310.909 42.3411C310.589 42.5248 310.269 42.6167 309.858 42.6167C309.172 42.6167 308.578 42.3871 308.166 41.8819C307.755 41.3768 307.526 40.7338 307.526 39.9531C307.526 39.1265 307.755 38.4836 308.166 38.0244C308.578 37.5651 309.126 37.2896 309.858 37.2896C310.269 37.2896 310.635 37.3814 310.909 37.5651C311.229 37.7488 311.458 38.0244 311.641 38.3918V37.4733H312.509ZM311.686 39.9991C311.686 39.448 311.549 38.9888 311.229 38.6673C310.909 38.3458 310.544 38.1621 310.041 38.1621C309.538 38.1621 309.126 38.2999 308.852 38.6214C308.578 38.9428 308.441 39.3561 308.441 39.9531C308.441 40.5501 308.578 41.0094 308.852 41.3308C309.126 41.6523 309.538 41.836 310.086 41.836C310.589 41.836 311.001 41.6982 311.275 41.3768C311.549 40.9634 311.686 40.5501 311.686 39.9991Z" fill="#2B2D30"/>
<path d="M318.772 37.4733V42.3411C318.772 42.8922 318.726 43.2596 318.68 43.4892C318.589 43.7188 318.498 43.9025 318.315 44.0862C318.086 44.3158 317.812 44.4995 317.492 44.6373C317.172 44.7751 316.76 44.821 316.349 44.821C315.618 44.821 315.023 44.6373 314.612 44.3158C314.201 43.9944 313.972 43.4892 313.972 42.8463H314.932V42.8922C314.932 43.2596 315.069 43.5351 315.298 43.7648C315.572 43.9485 315.892 44.0862 316.395 44.0862C316.715 44.0862 317.035 44.0403 317.263 43.9025C317.492 43.8107 317.675 43.627 317.812 43.3974C317.903 43.2596 317.949 43.1218 317.995 42.9841C318.04 42.8004 318.04 42.5708 318.04 42.2952V41.4686C317.858 41.836 317.583 42.1115 317.309 42.2952C316.989 42.4789 316.669 42.5708 316.258 42.5708C315.572 42.5708 314.978 42.3411 314.566 41.836C314.155 41.3308 313.926 40.7338 313.926 39.9072C313.926 39.0806 314.155 38.4836 314.566 37.9784C314.978 37.5192 315.526 37.2896 316.258 37.2896C316.669 37.2896 317.035 37.3814 317.355 37.5651C317.675 37.7488 317.903 38.0244 318.086 38.3918V37.4733H318.772ZM317.949 39.9531C317.949 39.4021 317.812 38.9428 317.492 38.6214C317.172 38.2999 316.806 38.1162 316.303 38.1162C315.8 38.1162 315.389 38.254 315.115 38.5754C314.841 38.8969 314.703 39.3102 314.703 39.9072C314.703 40.5042 314.841 40.9635 315.115 41.2849C315.389 41.6064 315.8 41.7901 316.349 41.7901C316.852 41.7901 317.263 41.6523 317.538 41.3308C317.812 40.9634 317.949 40.5042 317.949 39.9531Z" fill="#2B2D30"/>
<path d="M324.852 40.045H320.966V40.1368C320.966 40.6879 321.103 41.1012 321.423 41.4227C321.743 41.7441 322.109 41.9278 322.612 41.9278C322.932 41.9278 323.252 41.836 323.526 41.6523C323.8 41.4686 324.029 41.1931 324.212 40.8257L324.852 41.239C324.623 41.6982 324.303 42.0197 323.892 42.2493C323.526 42.4789 323.069 42.5708 322.566 42.5708C321.835 42.5708 321.195 42.3411 320.737 41.836C320.28 41.3308 320.052 40.6879 320.052 39.8613C320.052 39.0806 320.28 38.4377 320.737 37.9784C321.195 37.4733 321.789 37.2437 322.52 37.2437C323.252 37.2437 323.846 37.4733 324.257 37.9325C324.669 38.3918 324.897 39.0347 324.897 39.8613V40.045H324.852ZM323.983 39.3561C323.937 38.9428 323.8 38.5754 323.572 38.3458C323.343 38.1162 322.977 37.9784 322.52 37.9784C322.109 37.9784 321.789 38.1162 321.515 38.3458C321.24 38.5754 321.103 38.9428 321.057 39.3561H323.983Z" fill="#2B2D30"/>
<path d="M267.848 5.46485L268.488 5.05155C268.625 5.28116 268.762 5.46485 268.945 5.5567C269.128 5.69447 269.357 5.74039 269.585 5.74039C269.814 5.74039 270.042 5.69447 270.179 5.5567C270.316 5.41893 270.408 5.28116 270.408 5.09747C270.408 4.9597 270.362 4.82193 270.271 4.73008C270.179 4.63824 269.997 4.54639 269.722 4.45454L269.585 4.40862C268.534 4.04124 267.985 3.582 267.985 3.03093C267.985 2.61762 268.122 2.34208 268.397 2.06654C268.671 1.791 269.037 1.69916 269.539 1.69916C269.905 1.69916 270.225 1.791 270.499 1.92877C270.774 2.06654 270.956 2.29616 271.094 2.5717L270.499 2.93908C270.408 2.75539 270.271 2.5717 270.088 2.47985C269.905 2.388 269.722 2.29616 269.494 2.29616C269.265 2.29616 269.082 2.34208 268.945 2.47985C268.808 2.61762 268.717 2.75539 268.717 2.93908C268.717 3.21462 268.991 3.44424 269.585 3.62793C269.677 3.67385 269.768 3.67385 269.859 3.71977C270.317 3.85754 270.682 4.04124 270.865 4.22493C271.048 4.40862 271.139 4.68416 271.139 5.00562C271.139 5.41893 271.002 5.74039 270.682 6.01593C270.408 6.29147 269.997 6.38332 269.539 6.38332C269.128 6.38332 268.762 6.29147 268.488 6.1537C268.259 6.01593 268.031 5.78632 267.848 5.46485Z" fill="#2B2D30"/>
<path d="M272.419 2.43393H271.596V1.791H272.419V0H273.196V1.791H274.019V2.43393H273.196V6.19963H272.419V2.43393Z" fill="#2B2D30"/>
<path d="M265.197 0.826616V42.7544C265.197 44.5455 265.654 45.6476 266.614 46.1528C267.574 46.6579 269.311 46.9335 271.871 47.0253V47.9897H252.489V46.9335C255.277 46.7957 257.06 46.4283 257.928 45.7854C258.797 45.1425 259.208 43.8107 259.208 41.7441V9.82755C259.208 8.7254 259.071 7.89878 258.797 7.30178C258.523 6.7507 257.928 6.42924 257.014 6.42924C256.42 6.42924 255.643 6.61293 254.683 6.93439C253.723 7.25586 252.854 7.62324 252.031 7.99063V7.02624L264.602 0.597H265.014C265.151 0.688846 265.197 0.780693 265.197 0.826616Z" fill="#2B2D30"/>
<path d="M0.00457125 44.7659C0.00457125 33.8454 0.00457125 22.9294 0 12.0089C0 11.8114 0.0457125 11.7701 0.237705 11.7701C54.9145 11.7747 109.596 11.7747 164.273 11.7701C164.469 11.7701 164.51 11.816 164.51 12.0089C164.506 22.8514 164.506 33.6892 164.51 44.5317C164.51 44.7292 164.465 44.7705 164.273 44.7705C109.518 44.7659 54.759 44.7659 0.00457125 44.7659ZM82.8814 26.043C82.7717 25.9512 82.7488 25.8456 82.7077 25.7537C81.4369 23.0351 80.1615 20.3164 78.8998 17.5932C78.8221 17.4232 78.7307 17.3727 78.5478 17.3727C77.1216 17.3819 75.6954 17.3819 74.2691 17.3727C74.0634 17.3727 74.0132 17.4232 74.0132 17.6299C74.0177 22.7457 74.0177 27.857 74.0132 32.9728C74.0132 33.1841 74.0543 33.253 74.2783 33.2484C75.2794 33.2346 76.2805 33.2346 77.2816 33.2484C77.501 33.2484 77.5513 33.1887 77.5513 32.9728C77.5422 29.8592 77.5467 26.7411 77.5467 23.6275V23.3381C77.6473 23.4162 77.6656 23.5035 77.7067 23.5815C79.037 26.291 80.3718 29.0005 81.6974 31.7145C81.7797 31.8799 81.8666 31.9396 82.0494 31.935C82.5888 31.9212 83.1282 31.9212 83.6676 31.935C83.8505 31.935 83.9419 31.8799 84.0196 31.7145C85.3133 29.0831 86.6115 26.4517 87.9098 23.8249C87.9875 23.6642 88.0697 23.5081 88.1475 23.3473L88.184 23.3611V23.6412C88.184 26.7548 88.184 29.873 88.184 32.9866C88.184 33.1795 88.2115 33.253 88.4309 33.253C89.4503 33.2392 90.4651 33.2438 91.4845 33.253C91.6582 33.253 91.7222 33.2208 91.7222 33.0279C91.7176 27.8891 91.7176 22.7457 91.7222 17.6069C91.7222 17.4187 91.6673 17.3773 91.489 17.3773C90.0445 17.3865 88.6 17.3819 87.1555 17.3773C87.0001 17.3773 86.9315 17.4324 86.8675 17.5656C86.4241 18.53 85.967 19.4898 85.5144 20.4496C84.6413 22.3095 83.7682 24.1648 82.886 26.0476L82.8814 26.043ZM71.0235 25.2072C71.0327 23.6642 70.699 22.213 69.8762 20.8996C67.3208 16.8262 62.5393 16.2338 59.216 17.7355C56.3453 19.0351 54.7088 21.3083 54.4482 24.5046C54.3202 26.0752 54.5579 27.5814 55.2847 28.9913C56.9304 32.1875 60.5828 33.9097 64.2581 33.2897C67.618 32.7248 71.1058 29.7352 71.0235 25.2072ZM29.5623 31.4711C29.4754 31.3793 29.4343 31.3334 29.3932 31.292C24.6391 26.5206 19.8804 21.7538 15.1308 16.9778C14.9663 16.8125 14.8977 16.8722 14.7697 17.0008C10.0293 21.7584 5.28437 26.516 0.539408 31.2737C0.489124 31.3242 0.415984 31.3609 0.351986 31.4023C0.370271 31.4252 0.383985 31.4528 0.40227 31.4757H0.653689C2.46391 31.4757 4.27412 31.4757 6.08434 31.4757C6.27176 31.4757 6.40433 31.4206 6.53689 31.2874C9.27507 28.5321 12.0224 25.7813 14.7606 23.0259C14.9297 22.856 15.0029 22.8789 15.1583 23.0351C17.8965 25.7904 20.6438 28.5412 23.382 31.2966C23.51 31.4252 23.6288 31.4803 23.8117 31.4803C25.6219 31.4757 27.4321 31.4803 29.2423 31.4803H29.5623V31.4711ZM51.4312 25.3037C51.4312 22.7549 51.4312 20.2062 51.4357 17.662C51.4357 17.4141 51.3626 17.3681 51.134 17.3727C50.1421 17.3865 49.1501 17.3865 48.1581 17.3727C47.9479 17.3727 47.8839 17.4187 47.8839 17.6391C47.893 19.6735 47.8839 21.7033 47.893 23.7377C47.893 23.9535 47.8382 24.0132 47.6187 24.0132C45.7034 24.004 43.7926 24.004 41.8772 24.0132C41.6624 24.0132 41.603 23.9673 41.603 23.7423C41.6121 21.6987 41.603 19.6597 41.6121 17.6161C41.6121 17.4232 41.571 17.3681 41.3698 17.3681C40.3504 17.3773 39.3356 17.3773 38.3162 17.3681C38.1105 17.3681 38.0602 17.4232 38.0602 17.6253C38.0648 22.7366 38.0648 27.8524 38.0602 32.9636C38.0602 33.1703 38.0968 33.2438 38.3254 33.2438C39.3356 33.23 40.3413 33.2346 41.3516 33.2438C41.5527 33.2438 41.6121 33.1978 41.6121 32.9866C41.603 31.0762 41.6121 29.1658 41.603 27.2554C41.603 27.0487 41.6533 26.9982 41.859 26.9982C43.7835 27.0074 45.7034 27.0074 47.6279 26.9982C47.8519 26.9982 47.893 27.0625 47.893 27.2738C47.8839 29.175 47.893 31.0762 47.8839 32.982C47.8839 33.1795 47.9204 33.2484 48.1353 33.2484C49.1455 33.2346 50.1512 33.2346 51.1615 33.2484C51.3809 33.2484 51.4312 33.1933 51.4312 32.9774C51.422 30.4195 51.4266 27.8662 51.4266 25.3082L51.4312 25.3037ZM95.5986 25.3128C95.5986 27.8708 95.5986 30.4287 95.5986 32.982C95.5986 33.1519 95.6032 33.2438 95.8272 33.2438C99.5619 33.2346 103.292 33.2346 107.027 33.2438C107.237 33.2438 107.264 33.1703 107.26 32.9912C107.251 32.137 107.246 31.2783 107.26 30.4241C107.26 30.1761 107.219 30.0889 106.944 30.0934C104.439 30.1072 101.934 30.098 99.4293 30.1072C99.219 30.1072 99.1322 30.0843 99.1367 29.8317C99.155 28.9224 99.1505 28.0177 99.1367 27.1084C99.1367 26.8696 99.1916 26.8053 99.4339 26.8053C101.61 26.8145 103.786 26.8053 105.957 26.8145C106.158 26.8145 106.222 26.7686 106.218 26.5574C106.204 25.7445 106.204 24.9317 106.218 24.1234C106.222 23.8709 106.176 23.7882 105.898 23.7882C103.74 23.802 101.582 23.7882 99.4247 23.802C99.2053 23.802 99.1276 23.7652 99.1322 23.5218C99.1505 22.6126 99.1459 21.7079 99.1322 20.7986C99.1322 20.5598 99.2008 20.5139 99.4247 20.5185C101.852 20.5276 104.279 20.5185 106.707 20.5276C106.931 20.5276 107.018 20.4863 107.013 20.2337C106.995 19.3704 106.999 18.507 107.013 17.6437C107.013 17.4324 106.976 17.3635 106.748 17.3681C103.118 17.3773 99.4933 17.3773 95.8637 17.3681C95.6397 17.3681 95.5986 17.4324 95.5986 17.6437C95.6077 20.2016 95.6032 22.7595 95.6032 25.3128H95.5986ZM116.27 33.4137C116.978 33.4183 117.925 33.2989 118.821 32.9223C120.21 32.3391 121.248 31.4068 121.673 29.9052C121.851 29.276 121.86 28.6285 121.806 27.9856C121.7 26.7778 121.207 25.7767 120.201 25.0603C119.767 24.7526 119.305 24.4954 118.821 24.2796C117.952 23.8892 117.024 23.6918 116.11 23.4438C115.538 23.2922 114.972 23.1269 114.441 22.8651C113.961 22.6263 113.623 22.2819 113.609 21.6987C113.596 21.0098 113.966 20.4817 114.629 20.2521C115.173 20.0638 115.73 20.1052 116.284 20.1694C117.513 20.321 118.597 20.8353 119.584 21.5609C119.721 21.662 119.785 21.6574 119.881 21.515C120.379 20.7802 120.882 20.0455 121.399 19.3245C121.531 19.1362 121.513 19.0489 121.335 18.9157C119.122 17.2901 116.668 16.6977 113.966 17.1707C112.947 17.3498 112.032 17.7952 111.264 18.5024C110.135 19.5357 109.875 20.8629 109.98 22.3187C110.094 23.9489 110.926 25.0557 112.38 25.7491C113.239 26.1578 114.13 26.4563 115.054 26.6905C115.836 26.888 116.622 27.0763 117.353 27.4345C117.769 27.6411 118.075 27.9534 118.167 28.4264C118.331 29.2852 117.838 29.9832 116.905 30.1945C116.119 30.3736 115.346 30.2725 114.592 30.02C113.445 29.6342 112.467 28.9591 111.557 28.1739C111.42 28.0545 111.356 28.059 111.241 28.2014C110.633 28.9637 110.012 29.7169 109.39 30.47C109.299 30.5802 109.29 30.6353 109.404 30.741C111.292 32.4263 113.458 33.4091 116.274 33.4091L116.27 33.4137ZM124.836 25.2945C124.836 27.8616 124.836 30.4241 124.836 32.9912C124.836 33.1795 124.873 33.2438 125.074 33.2392C126.093 33.2254 127.108 33.2254 128.128 33.2392C128.338 33.2392 128.384 33.1749 128.384 32.9774C128.374 31.0854 128.384 29.1888 128.374 27.2967C128.374 27.0671 128.425 27.0074 128.658 27.0074C130.788 27.0166 132.923 27.0074 135.053 27.0212C135.3 27.0212 135.35 26.9477 135.346 26.7181C135.332 25.8823 135.332 25.0419 135.346 24.2061C135.346 23.9719 135.291 23.903 135.049 23.9076C132.918 23.9168 130.784 23.9076 128.653 23.9214C128.416 23.9214 128.37 23.8525 128.37 23.6321C128.384 22.6814 128.384 21.7308 128.37 20.7802C128.37 20.546 128.42 20.4771 128.667 20.4771C130.912 20.4863 133.156 20.4771 135.4 20.4909C135.661 20.4909 135.711 20.4174 135.707 20.174C135.693 19.3382 135.693 18.4978 135.707 17.662C135.707 17.437 135.661 17.3773 135.423 17.3773C131.986 17.3865 128.548 17.3865 125.115 17.3773C124.887 17.3773 124.832 17.4278 124.832 17.662C124.841 20.2108 124.836 22.7595 124.836 25.3082V25.2945ZM7.18601 32.16C6.66489 32.16 6.14376 32.1646 5.62264 32.16C5.46265 32.16 5.38951 32.1875 5.38951 32.3712C5.38951 33.1657 5.43522 33.9556 5.58607 34.7409C6.52318 39.6317 11.3504 43.0621 16.2554 42.2906C19.3638 41.8038 21.7043 40.1644 23.254 37.4182C24.1225 35.8798 24.4791 34.2082 24.4196 32.4447C24.4105 32.2197 24.3373 32.1554 24.1134 32.16C23.1305 32.1738 22.1477 32.1738 21.1649 32.16C20.9181 32.16 20.8723 32.2335 20.8952 32.4539C20.9455 32.9407 20.9089 33.4321 20.8221 33.9142C20.3786 36.4079 18.4039 38.3596 15.8942 38.7913C13.4669 39.2092 10.9801 38.0381 9.72763 35.8798C9.14251 34.874 8.8728 33.7903 8.91851 32.6284C8.9307 32.3222 8.77985 32.1692 8.46596 32.1692C8.04083 32.1692 7.61571 32.1692 7.18601 32.1692V32.16ZM136.53 17.3773C136.53 17.5059 136.603 17.5794 136.644 17.6575C138.372 20.6884 140.104 23.7239 141.837 26.7548C141.924 26.9018 141.96 27.0487 141.96 27.2232C141.96 29.1428 141.96 31.0624 141.951 32.982C141.951 33.2024 142.015 33.253 142.225 33.2484C143.217 33.2346 144.209 33.2346 145.201 33.2484C145.43 33.2484 145.508 33.207 145.503 32.9545C145.489 31.0441 145.498 29.1336 145.494 27.2232C145.494 27.0487 145.535 26.9018 145.617 26.7548C147.322 23.7698 149.027 20.7802 150.732 17.7952C150.806 17.6712 150.874 17.5426 150.97 17.3773H150.678C149.59 17.3773 148.502 17.3819 147.414 17.3727C147.217 17.3727 147.107 17.4278 147.007 17.6023C145.974 19.4071 144.927 21.2073 143.88 23.0075C143.834 23.0856 143.807 23.182 143.711 23.2417C143.661 23.159 143.615 23.0856 143.569 23.0121C142.523 21.2027 141.471 19.3979 140.433 17.584C140.342 17.4278 140.246 17.3773 140.068 17.3773C138.962 17.3865 137.86 17.3773 136.754 17.3773H136.525H136.53ZM149.466 33.2943C150.49 33.2943 151.327 32.4677 151.336 31.4436C151.35 30.4195 150.522 29.5791 149.494 29.5699C148.451 29.5607 147.606 30.3965 147.61 31.4298C147.61 32.4585 148.442 33.2943 149.466 33.2989V33.2943ZM159.806 17.2487C159.889 15.9307 158.723 14.5439 157.141 14.5485C155.642 14.5485 154.435 15.7516 154.431 17.2533C154.431 18.7366 155.624 19.9077 157.087 19.949C158.581 19.9949 159.884 18.6586 159.802 17.2487H159.806ZM57.3738 37.657C57.3738 37.4917 57.3601 37.3769 57.3738 37.2666C57.4058 37.0462 57.2778 37.06 57.1269 37.0554C56.9761 37.0554 56.8984 37.0646 56.903 37.2575C56.9121 38.3045 56.9121 39.3516 56.903 40.3986C56.903 40.6007 56.9807 40.619 57.1452 40.619C57.3052 40.619 57.3966 40.6098 57.3921 40.4032C57.3784 39.8383 57.3784 39.2689 57.3921 38.704C57.4149 37.9142 57.8675 37.4687 58.608 37.4779C59.1749 37.4871 59.5497 37.8223 59.5726 38.3963C59.6 39.0576 59.5954 39.7235 59.5817 40.3848C59.5817 40.5961 59.6548 40.619 59.8377 40.6282C60.0388 40.6328 60.0845 40.5731 60.0845 40.3756C60.0754 39.7557 60.0663 39.1357 60.1028 38.5203C60.1394 37.859 60.6148 37.4687 61.3005 37.4825C61.9039 37.4917 62.233 37.8499 62.2696 38.5387C62.2787 38.6857 62.2696 38.8372 62.2696 38.9842C62.2696 39.4709 62.2787 39.9623 62.2696 40.4491C62.265 40.6787 62.4113 40.6144 62.5302 40.619C62.6536 40.6282 62.7633 40.642 62.7633 40.4445C62.7496 39.7832 62.7724 39.1173 62.7542 38.456C62.7404 37.9555 62.5896 37.51 62.1279 37.2345C61.5062 36.8671 60.5462 37.0324 60.0754 37.5789C60.0297 37.634 60.0068 37.7213 59.92 37.7396C59.5543 36.8993 58.096 36.7569 57.3875 37.6616L57.3738 37.657ZM70.7584 38.9934C71.1927 38.9934 71.627 38.9934 72.0612 38.9934C72.1709 38.9934 72.2532 38.9933 72.2624 38.8372C72.2989 38.1392 71.8647 37.4228 71.2247 37.1656C70.5299 36.8855 69.7116 37.0646 69.2408 37.6065C68.6374 38.2999 68.6694 39.471 69.3048 40.1185C69.9447 40.7706 71.1744 40.8257 71.8647 40.2425C72.0018 40.1231 72.0384 40.045 71.8967 39.8934C71.7824 39.7649 71.7321 39.7924 71.6132 39.8889C70.7996 40.5639 69.5013 40.1598 69.323 39.1862C69.2956 39.0347 69.323 38.9888 69.4785 38.9934C69.9036 39.0025 70.3287 38.9934 70.7584 38.9934ZM38.3848 37.657C38.3848 37.5146 38.3848 37.432 38.3848 37.3493C38.3848 36.8258 38.3802 36.3023 38.3848 35.7787C38.3848 35.6134 38.3071 35.5813 38.1791 35.6088C38.074 35.6318 37.9003 35.5124 37.9003 35.7558C37.9003 37.3263 37.9003 38.8969 37.9003 40.4675C37.9003 40.5226 37.8774 40.5869 37.9597 40.619C38.1928 40.7109 38.3711 40.5961 38.3757 40.3481C38.3894 39.7281 38.3208 39.1082 38.4077 38.4928C38.5037 37.7764 39.0065 37.4228 39.7699 37.4871C40.355 37.533 40.6659 37.9325 40.6659 38.6443C40.6659 39.2459 40.6704 39.8475 40.6659 40.4491C40.6659 40.6236 40.7481 40.642 40.8716 40.619C40.9767 40.6007 41.1504 40.7109 41.1504 40.4721C41.1413 39.7373 41.1641 39.0071 41.1276 38.2724C41.0956 37.5789 40.611 37.1243 39.9207 37.0554C39.3265 36.9957 38.8054 37.1381 38.3757 37.6616L38.3848 37.657ZM49.0358 40.642C50.0781 40.642 50.8232 39.898 50.8278 38.851C50.8369 37.7948 50.0781 37.037 49.0267 37.037C47.9844 37.037 47.2393 37.7856 47.2302 38.8326C47.2256 39.8843 47.9799 40.6466 49.0313 40.6466L49.0358 40.642ZM100.6 38.8418C100.6 39.8889 101.34 40.6374 102.382 40.642C103.434 40.6512 104.197 39.8889 104.197 38.8418C104.197 37.7993 103.447 37.0462 102.41 37.037C101.358 37.0278 100.6 37.7856 100.6 38.8418ZM136.854 38.8464C136.854 37.7948 136.127 37.0508 135.081 37.037C134.034 37.0232 133.261 37.7856 133.257 38.8326C133.252 39.8797 134.015 40.642 135.067 40.642C136.109 40.642 136.85 39.898 136.854 38.8464ZM124.315 37.0829C124.352 37.1748 124.384 37.262 124.42 37.3493C124.841 38.2953 125.243 39.2505 125.696 40.1782C125.865 40.5226 125.833 40.7889 125.655 41.092C125.38 41.5605 124.951 41.6799 124.484 41.3814C124.384 41.3171 124.32 41.2665 124.251 41.4135C124.196 41.5329 124.073 41.6247 124.26 41.7533C124.772 42.1069 125.554 41.9875 125.915 41.4824C126.011 41.3492 126.084 41.1977 126.153 41.0507C126.72 39.7878 127.282 38.5249 127.84 37.262C127.863 37.2069 127.927 37.1518 127.885 37.0784C127.602 37.0661 127.405 37.184 127.296 37.432C126.957 38.2035 126.619 38.975 126.272 39.7465C126.231 39.8383 126.217 39.9486 126.112 40.0266C126.071 39.944 126.034 39.8705 126.002 39.797C125.655 39.0117 125.307 38.2218 124.96 37.4366C124.844 37.1733 124.629 37.06 124.315 37.0967V37.0829ZM145.668 39.9991C145.668 40.1919 145.681 40.3159 145.668 40.4307C145.645 40.6144 145.75 40.6282 145.887 40.619C146.006 40.6098 146.143 40.6741 146.143 40.4445C146.134 39.3699 146.143 38.2953 146.138 37.2253C146.138 37.1702 146.161 37.1059 146.088 37.0692C145.878 36.9681 145.663 37.0967 145.658 37.3217C145.645 37.9601 145.709 38.5984 145.622 39.2322C145.535 39.8843 145.069 40.2379 144.365 40.2103C143.775 40.1874 143.45 39.8383 143.4 39.1679C143.391 39.0531 143.391 38.9428 143.391 38.828C143.391 38.2953 143.382 37.7626 143.391 37.2299C143.396 37.0187 143.263 37.0646 143.153 37.0692C143.048 37.0738 142.902 36.9957 142.902 37.2207C142.911 37.9004 142.884 38.5846 142.916 39.2643C142.957 40.1414 143.46 40.6144 144.333 40.6466C144.863 40.6695 145.302 40.495 145.672 40.0037L145.668 39.9991ZM79.3981 40.642C79.6312 40.642 79.9832 40.6053 80.2986 40.4124C80.6186 40.2195 80.774 39.9348 80.7512 39.5582C80.7283 39.1816 80.5135 38.9566 80.1706 38.828C79.9832 38.7591 79.7866 38.7178 79.5946 38.6765C79.3067 38.6168 79.005 38.5938 78.7398 38.456C78.4244 38.2907 78.3696 37.9096 78.6255 37.6708C78.749 37.556 78.9044 37.5008 79.0735 37.4779C79.5078 37.4182 79.9283 37.4595 80.3078 37.6891C80.4678 37.7856 80.486 37.6616 80.5226 37.5743C80.5592 37.4917 80.7192 37.3906 80.5318 37.3034C79.8369 36.9865 79.1284 36.8993 78.429 37.2758C78.1044 37.4503 77.9673 37.758 77.9947 38.1346C78.0176 38.5112 78.2324 38.7408 78.5661 38.874C78.7947 38.9658 79.0324 39.0071 79.2701 39.0531C79.5169 39.099 79.7684 39.1311 79.9969 39.2413C80.1569 39.3194 80.2621 39.4296 80.2712 39.6225C80.2803 39.8246 80.2026 39.9853 80.0243 40.0771C79.9192 40.1322 79.8004 40.1782 79.6815 40.1919C79.1695 40.2562 78.6712 40.1919 78.2233 39.921C78.0907 39.8383 78.0359 39.8521 77.9764 39.9853C77.9261 40.1001 77.7936 40.2057 77.9993 40.3159C78.397 40.5318 78.8221 40.6374 79.4027 40.642H79.3981ZM94.1861 39.0485C94.1861 38.5846 94.1907 38.1254 94.1861 37.6616C94.1861 37.5192 94.2181 37.4641 94.3735 37.4687C94.6158 37.4825 94.8626 37.4641 95.1049 37.4733C95.2969 37.4825 95.2512 37.3539 95.2603 37.2483C95.2649 37.1381 95.274 37.0462 95.1049 37.0554C94.8535 37.0692 94.6021 37.06 94.3506 37.0554C94.2912 37.0554 94.1861 37.0967 94.1861 36.9865C94.1861 36.6972 94.1084 36.3757 94.3506 36.1415C94.5929 35.9073 94.8946 35.9349 95.178 36.068C95.306 36.1277 95.3563 36.114 95.4066 35.99C95.4523 35.8706 95.5117 35.7833 95.3472 35.6915C94.5929 35.2782 93.7472 35.7466 93.7152 36.6053C93.7015 37.0416 93.7015 37.0554 93.2718 37.0508C93.0936 37.0508 93.0844 37.1243 93.0798 37.2666C93.0798 37.4228 93.121 37.4963 93.2856 37.4687C93.345 37.4595 93.409 37.4733 93.4684 37.4687C93.6787 37.4366 93.7244 37.5238 93.7244 37.7259C93.7152 38.6076 93.7244 39.4893 93.7152 40.3665C93.7152 40.5501 93.7472 40.6282 93.9529 40.619C94.1358 40.6098 94.2135 40.5869 94.2044 40.3756C94.1861 39.9302 94.1998 39.4847 94.1998 39.0393L94.1861 39.0485ZM110.743 37.7305C110.743 37.533 110.729 37.3998 110.743 37.2712C110.766 37.0875 110.679 37.0554 110.524 37.0646C110.377 37.0692 110.268 37.0508 110.272 37.2712C110.286 38.3183 110.281 39.3607 110.272 40.4078C110.272 40.6053 110.345 40.6328 110.515 40.6282C110.665 40.6282 110.771 40.6282 110.766 40.417C110.748 39.8751 110.752 39.3378 110.766 38.7959C110.78 37.9509 111.219 37.5192 111.923 37.5054C112.188 37.5008 112.037 37.308 112.064 37.1978C112.105 37.037 111.996 37.0416 111.877 37.0508C111.415 37.0829 111.04 37.2575 110.743 37.7305Z" fill="#FEFEFE"/>
<path d="M82.8813 26.0476C83.7636 24.1694 84.6367 22.3095 85.5098 20.4496C85.9624 19.4898 86.4149 18.53 86.8629 17.5656C86.9269 17.4278 86.9955 17.3727 87.1509 17.3773C88.5954 17.3819 90.0399 17.3865 91.4844 17.3773C91.6627 17.3773 91.7176 17.4187 91.7176 17.6069C91.713 22.7457 91.713 27.8891 91.7176 33.0279C91.7176 33.2208 91.649 33.253 91.4799 33.253C90.4605 33.2438 89.4457 33.2438 88.4263 33.253C88.2069 33.253 88.1794 33.1795 88.1794 32.9866C88.184 29.873 88.1794 26.7548 88.1794 23.6412V23.3611L88.1429 23.3473C88.0652 23.5081 87.9829 23.6642 87.9052 23.8249C86.6069 26.4563 85.3087 29.0831 84.015 31.7145C83.9327 31.8799 83.8413 31.9396 83.663 31.935C83.1236 31.9212 82.5842 31.9212 82.0448 31.935C81.862 31.935 81.7751 31.8753 81.6928 31.7145C80.3672 29.0005 79.0324 26.291 77.7021 23.5815C77.6655 23.5035 77.6473 23.4162 77.5421 23.3381V23.6275C77.5421 26.7411 77.5421 29.8592 77.5467 32.9728C77.5467 33.1887 77.501 33.2484 77.277 33.2484C76.2759 33.2346 75.2748 33.2346 74.2737 33.2484C74.0497 33.2484 74.0085 33.1795 74.0085 32.9728C74.0131 27.857 74.0131 22.7457 74.0085 17.6299C74.0085 17.4232 74.0634 17.3727 74.2645 17.3727C75.6908 17.3819 77.117 17.3819 78.5432 17.3727C78.7215 17.3727 78.8129 17.4232 78.8952 17.5932C80.1615 20.3164 81.4323 23.0351 82.7031 25.7537C82.7442 25.8456 82.7671 25.9512 82.8768 26.043L82.8813 26.0476Z" fill="#059B5A"/>
<path d="M71.0236 25.2072C71.1059 29.7352 67.618 32.7294 64.2581 33.2897C60.5783 33.9051 56.9304 32.1875 55.2848 28.9913C54.5579 27.5814 54.3248 26.0752 54.4482 24.5046C54.7088 21.3083 56.3453 19.0351 59.216 17.7355C62.5393 16.2338 67.3209 16.8262 69.8762 20.8996C70.699 22.213 71.0327 23.6642 71.0236 25.2072ZM67.4215 25.2072C67.4352 24.1418 67.1655 23.1407 66.5621 22.236C64.761 19.5173 61.5794 19.6918 59.8789 21.1292C57.4516 23.182 57.4378 27.1635 59.7783 29.2071C61.4651 30.6813 64.0296 30.6996 65.6889 29.1933C66.8592 28.1325 67.426 26.8053 67.4215 25.2072Z" fill="#059B5A"/>
<path d="M29.5577 31.4757H29.2377C27.4275 31.4757 25.6173 31.4757 23.8071 31.4757C23.6242 31.4757 23.5008 31.4206 23.3774 31.292C20.6392 28.5366 17.8919 25.7858 15.1537 23.0305C14.9983 22.8743 14.9251 22.8514 14.756 23.0213C12.0178 25.7813 9.27507 28.5275 6.53232 31.2828C6.39975 31.416 6.26718 31.4711 6.07976 31.4711C4.26955 31.4619 2.45933 31.4711 0.649115 31.4711H0.397696C0.379411 31.4482 0.365697 31.4206 0.347412 31.3977C0.41141 31.3563 0.479978 31.3242 0.534833 31.2691C5.27979 26.5114 10.0248 21.7584 14.7651 16.9962C14.8931 16.8676 14.9617 16.8125 15.1263 16.9732C19.8758 21.7492 24.6345 26.516 29.3886 31.2874C29.4297 31.3288 29.4709 31.3747 29.5577 31.4665V31.4757Z" fill="#161F2E"/>
<path d="M51.4266 25.3082C51.4266 27.8662 51.4266 30.4195 51.4312 32.9774C51.4312 33.1932 51.3855 33.253 51.1615 33.2484C50.1513 33.2346 49.1456 33.2346 48.1353 33.2484C47.9205 33.2484 47.8794 33.1795 47.8839 32.982C47.8931 31.0808 47.8839 29.1796 47.8931 27.2738C47.8931 27.0625 47.8519 26.9982 47.6279 26.9982C45.7034 27.0074 43.7835 27.0074 41.859 26.9982C41.6533 26.9982 41.603 27.0487 41.603 27.2554C41.6122 29.1658 41.603 31.0762 41.6122 32.9866C41.6122 33.1978 41.5527 33.2438 41.3516 33.2438C40.3414 33.2346 39.3357 33.23 38.3254 33.2438C38.0969 33.2438 38.0603 33.1749 38.0603 32.9636C38.0649 27.8524 38.0649 22.7366 38.0603 17.6253C38.0603 17.4187 38.1106 17.3635 38.3163 17.3681C39.3357 17.3773 40.3505 17.3773 41.3699 17.3681C41.571 17.3681 41.6122 17.4232 41.6122 17.6161C41.603 19.6597 41.6122 21.6987 41.603 23.7423C41.603 23.9627 41.667 24.0132 41.8773 24.0132C43.7927 24.004 45.7034 24.004 47.6188 24.0132C47.8382 24.0132 47.8931 23.9535 47.8931 23.7377C47.8839 21.7033 47.8931 19.6735 47.8839 17.6391C47.8839 17.4141 47.9479 17.3681 48.1582 17.3727C49.1502 17.3819 50.1421 17.3865 51.1341 17.3727C51.3626 17.3727 51.4358 17.4186 51.4358 17.662C51.4266 20.2108 51.4312 22.7595 51.4312 25.3037L51.4266 25.3082Z" fill="#059B5A"/>
<path d="M95.5986 25.322C95.5986 22.7641 95.5986 20.2062 95.594 17.6529C95.594 17.4416 95.6351 17.3773 95.8591 17.3773C99.4887 17.3865 103.114 17.3865 106.743 17.3773C106.972 17.3773 107.013 17.4462 107.008 17.6529C106.995 18.5162 106.995 19.3796 107.008 20.2429C107.013 20.4955 106.926 20.5368 106.702 20.5368C104.275 20.5276 101.847 20.5368 99.4201 20.5276C99.1961 20.5276 99.123 20.569 99.1276 20.8078C99.1413 21.7171 99.1459 22.6217 99.1276 23.531C99.1276 23.7744 99.2053 23.8112 99.4201 23.8112C101.578 23.802 103.735 23.8112 105.893 23.7974C106.167 23.7974 106.218 23.88 106.213 24.1326C106.199 24.9455 106.199 25.7537 106.213 26.5665C106.213 26.7778 106.149 26.8237 105.952 26.8237C103.777 26.8145 101.601 26.8237 99.4293 26.8145C99.187 26.8145 99.1276 26.8788 99.1321 27.1176C99.1459 28.0269 99.1504 28.9316 99.1321 29.8409C99.1276 30.0888 99.2144 30.1164 99.4247 30.1164C101.93 30.1118 104.435 30.1164 106.94 30.1026C107.219 30.1026 107.26 30.1853 107.255 30.4333C107.242 31.2874 107.246 32.1416 107.255 33.0004C107.255 33.1795 107.232 33.253 107.022 33.253C103.287 33.2438 99.5573 33.2438 95.8226 33.253C95.5986 33.253 95.594 33.1611 95.594 32.9912C95.594 30.4333 95.594 27.8754 95.594 25.322H95.5986Z" fill="#059B5A"/>
<path d="M116.265 33.4229C113.445 33.4229 111.278 32.4401 109.395 30.7547C109.28 30.6537 109.294 30.594 109.381 30.4838C110.003 29.7306 110.62 28.9775 111.232 28.2152C111.347 28.0728 111.411 28.0636 111.548 28.1876C112.453 28.9729 113.431 29.648 114.583 30.0337C115.337 30.2863 116.105 30.3873 116.896 30.2082C117.824 29.997 118.322 29.299 118.158 28.4402C118.066 27.9672 117.76 27.6503 117.344 27.4483C116.613 27.0901 115.826 26.9018 115.045 26.7043C114.126 26.4701 113.23 26.1716 112.371 25.7629C110.921 25.0694 110.089 23.9627 109.971 22.3324C109.866 20.8767 110.126 19.5495 111.255 18.5162C112.028 17.809 112.937 17.3635 113.957 17.1844C116.654 16.7114 119.113 17.3084 121.326 18.9295C121.504 19.0627 121.522 19.15 121.39 19.3382C120.873 20.0592 120.37 20.794 119.872 21.5288C119.776 21.6711 119.712 21.6757 119.575 21.5747C118.583 20.8491 117.504 20.3348 116.274 20.1832C115.721 20.1143 115.164 20.0776 114.62 20.2659C113.952 20.4955 113.582 21.0236 113.6 21.7125C113.614 22.2911 113.957 22.6401 114.432 22.8789C114.962 23.1453 115.534 23.306 116.101 23.4575C117.015 23.7009 117.943 23.903 118.811 24.2933C119.296 24.5092 119.758 24.7664 120.192 25.074C121.198 25.7904 121.691 26.7916 121.796 27.9993C121.851 28.6469 121.847 29.2898 121.664 29.9189C121.239 31.4252 120.201 32.3529 118.811 32.9361C117.915 33.3127 116.969 33.4321 116.261 33.4275L116.265 33.4229Z" fill="#059B5A"/>
<path d="M124.836 25.3037C124.836 22.7549 124.836 20.2062 124.832 17.6575C124.832 17.4232 124.887 17.3727 125.115 17.3727C128.553 17.3819 131.99 17.3819 135.423 17.3727C135.657 17.3727 135.707 17.4324 135.707 17.6575C135.693 18.4933 135.693 19.3336 135.707 20.1694C135.711 20.4128 135.661 20.4909 135.401 20.4863C133.156 20.4725 130.912 20.4863 128.667 20.4725C128.42 20.4725 128.365 20.5414 128.37 20.7756C128.384 21.7262 128.384 22.6769 128.37 23.6275C128.37 23.8525 128.411 23.9168 128.653 23.9168C130.784 23.9076 132.918 23.9168 135.049 23.903C135.291 23.903 135.346 23.9673 135.346 24.2015C135.332 25.0373 135.332 25.8777 135.346 26.7135C135.346 26.9431 135.3 27.0166 135.053 27.0166C132.923 27.0074 130.788 27.0166 128.658 27.0028C128.425 27.0028 128.375 27.0625 128.375 27.2921C128.384 29.1842 128.375 31.0808 128.384 32.9728C128.384 33.1703 128.343 33.2392 128.128 33.2346C127.108 33.2208 126.093 33.2208 125.074 33.2346C124.868 33.2346 124.836 33.1703 124.836 32.9866C124.841 30.4195 124.836 27.857 124.836 25.2899V25.3037Z" fill="#059B5A"/>
<path d="M7.18607 32.16C7.61119 32.16 8.03632 32.16 8.46602 32.16C8.77991 32.16 8.93076 32.3131 8.91857 32.6192C8.87286 33.7811 9.14256 34.8694 9.72768 35.8706C10.9802 38.029 13.4715 39.2046 15.8943 38.7821C18.4039 38.3504 20.3833 36.3941 20.8221 33.9051C20.909 33.4229 20.9455 32.9361 20.8953 32.4447C20.8724 32.2243 20.9181 32.1462 21.165 32.1508C22.1478 32.1646 23.1306 32.1646 24.1134 32.1508C24.3374 32.1508 24.4105 32.2059 24.4197 32.4355C24.4791 34.199 24.118 35.8706 23.254 37.409C21.7044 40.1552 19.3639 41.7947 16.2554 42.2814C11.3505 43.053 6.52324 39.6225 5.58613 34.7317C5.43528 33.9464 5.38499 33.1611 5.38956 32.362C5.38956 32.1784 5.4627 32.1462 5.6227 32.1508C6.14382 32.16 6.66494 32.1508 7.18607 32.1508V32.16Z" fill="#F49A01"/>
<path d="M136.53 17.3773H136.758C137.864 17.3773 138.966 17.3773 140.072 17.3773C140.251 17.3773 140.347 17.4278 140.438 17.584C141.48 19.3979 142.527 21.2027 143.574 23.0121C143.615 23.0856 143.661 23.159 143.716 23.2417C143.812 23.182 143.839 23.0856 143.885 23.0075C144.932 21.2073 145.974 19.4071 147.011 17.6023C147.112 17.4278 147.217 17.3681 147.418 17.3727C148.506 17.3819 149.594 17.3773 150.682 17.3773H150.975C150.883 17.5426 150.81 17.6712 150.737 17.7952C149.032 20.7802 147.331 23.7698 145.622 26.7548C145.535 26.9018 145.494 27.0487 145.498 27.2232C145.503 29.1336 145.498 31.0441 145.507 32.9545C145.507 33.2024 145.434 33.2484 145.206 33.2484C144.214 33.2346 143.222 33.2346 142.23 33.2484C142.02 33.2484 141.956 33.2024 141.956 32.982C141.965 31.0624 141.956 29.1428 141.965 27.2232C141.965 27.0487 141.928 26.9018 141.841 26.7548C140.109 23.7239 138.376 20.693 136.648 17.6575C136.603 17.5794 136.534 17.5059 136.534 17.3773H136.53Z" fill="#059B5A"/>
<path d="M149.471 33.2989C148.447 33.2989 147.619 32.4585 147.615 31.4298C147.615 30.3965 148.456 29.5607 149.498 29.5699C150.527 29.5791 151.354 30.4195 151.34 31.4436C151.327 32.4723 150.49 33.2989 149.471 33.2943V33.2989Z" fill="#059B5A"/>
<path d="M159.806 17.2533C159.889 18.6632 158.586 19.9949 157.091 19.9536C155.624 19.9123 154.435 18.7412 154.435 17.2579C154.435 15.7608 155.642 14.5576 157.146 14.553C158.728 14.553 159.893 15.9399 159.811 17.2533H159.806ZM157.146 15.1179C155.953 15.1133 155.002 16.0501 154.997 17.2396C154.993 18.4336 155.93 19.3888 157.114 19.4025C158.284 19.4163 159.258 18.4519 159.267 17.2717C159.276 16.0915 158.325 15.1225 157.141 15.1179H157.146Z" fill="#060606"/>
<path d="M57.3738 37.6616C58.0824 36.7569 59.5406 36.8993 59.9063 37.7396C59.9932 37.7213 60.016 37.634 60.0617 37.5789C60.5326 37.0278 61.4925 36.8625 62.1142 37.2345C62.5759 37.51 62.7268 37.9555 62.7405 38.456C62.7588 39.1173 62.7405 39.7832 62.7496 40.4445C62.7496 40.642 62.6445 40.6282 62.5165 40.619C62.3976 40.6098 62.2514 40.6787 62.2559 40.4491C62.2696 39.9623 62.2559 39.4709 62.2559 38.9842C62.2559 38.8372 62.2605 38.6857 62.2559 38.5387C62.2194 37.8499 61.8902 37.4917 61.2868 37.4825C60.6011 37.4687 60.1257 37.8636 60.0892 38.5203C60.0572 39.1403 60.0663 39.7603 60.0709 40.3756C60.0709 40.5685 60.0252 40.6328 59.824 40.6282C59.6412 40.6236 59.568 40.5961 59.568 40.3848C59.5818 39.7235 59.5817 39.0576 59.5589 38.3963C59.536 37.8223 59.1612 37.4871 58.5944 37.4779C57.8492 37.4687 57.4013 37.9142 57.3784 38.704C57.3647 39.2689 57.3647 39.8383 57.3784 40.4032C57.383 40.6098 57.2916 40.619 57.1316 40.619C56.967 40.619 56.8893 40.6007 56.8893 40.3986C56.8984 39.3515 56.8984 38.3045 56.8893 37.2575C56.8893 37.0646 56.9624 37.0508 57.1133 37.0554C57.2641 37.0554 57.3921 37.0462 57.3601 37.2666C57.3418 37.3769 57.3601 37.4917 57.3601 37.657L57.3738 37.6616Z" fill="#1B2433"/>
<path d="M70.7584 38.9979C70.3333 38.9979 69.9082 39.0025 69.4785 38.9979C69.3185 38.9979 69.2956 39.0393 69.323 39.1908C69.5059 40.1644 70.8041 40.5685 71.6132 39.8934C71.7275 39.797 71.7778 39.774 71.8966 39.898C72.0384 40.0496 72.0018 40.1322 71.8646 40.2471C71.1744 40.8303 69.9493 40.7752 69.3047 40.1231C68.6693 39.4755 68.6373 38.3045 69.2407 37.6111C69.707 37.0738 70.5298 36.8901 71.2247 37.1702C71.8601 37.4274 72.2989 38.1438 72.2623 38.8418C72.2532 39.0025 72.1755 38.9979 72.0612 38.9979C71.6269 38.9979 71.1927 38.9979 70.7584 38.9979ZM70.5481 38.6351C70.9138 38.6351 71.2795 38.6306 71.6452 38.6351C71.7869 38.6351 71.8006 38.5892 71.7778 38.4652C71.6681 37.8774 71.1698 37.4595 70.5573 37.4549C69.9402 37.4457 69.451 37.8499 69.3276 38.4469C69.2956 38.6076 69.3367 38.6351 69.483 38.6351C69.8396 38.626 70.1961 38.6351 70.5527 38.6351H70.5481Z" fill="#1B2433"/>
<path d="M38.3848 37.6662C38.8145 37.1472 39.3356 37.0049 39.9299 37.06C40.6202 37.1289 41.1047 37.5835 41.1367 38.2769C41.1733 39.0071 41.1504 39.7419 41.1596 40.4767C41.1596 40.7201 40.9859 40.6052 40.8807 40.6236C40.7573 40.6466 40.6704 40.6236 40.675 40.4537C40.6842 39.8521 40.6796 39.2505 40.675 38.6489C40.675 37.9325 40.3642 37.5376 39.7791 37.4917C39.0157 37.432 38.5128 37.7856 38.4168 38.4974C38.3345 39.1127 38.3985 39.7327 38.3848 40.3527C38.3802 40.6007 38.202 40.7155 37.9688 40.6236C37.8866 40.5915 37.9094 40.5272 37.9094 40.4721C37.9094 38.9015 37.9094 37.3309 37.9094 35.7604C37.9094 35.517 38.0831 35.6364 38.1883 35.6134C38.3163 35.5858 38.394 35.6134 38.394 35.7833C38.3848 36.3068 38.394 36.8304 38.394 37.3539C38.394 37.4365 38.394 37.5192 38.394 37.6616L38.3848 37.6662Z" fill="#161F2E"/>
<path d="M49.0312 40.6512C47.9798 40.6512 47.2256 39.8934 47.2301 38.8372C47.2347 37.7902 47.9798 37.0462 49.0266 37.0416C50.078 37.0416 50.8368 37.7993 50.8277 38.8556C50.8186 39.9026 50.078 40.6466 49.0358 40.6466L49.0312 40.6512ZM50.334 38.874C50.3431 38.0519 49.822 37.4825 49.0495 37.4733C48.2861 37.4641 47.733 38.0152 47.7192 38.8051C47.7101 39.6271 48.2312 40.2057 48.9946 40.2195C49.7809 40.2333 50.3249 39.6822 50.334 38.874Z" fill="#1B2433"/>
<path d="M100.595 38.8464C100.595 37.7902 101.354 37.0324 102.405 37.0416C103.447 37.0508 104.193 37.8039 104.193 38.8464C104.193 39.898 103.429 40.6558 102.378 40.6466C101.336 40.6374 100.595 39.8888 100.595 38.8464ZM103.694 38.8418C103.694 38.0244 103.155 37.4687 102.378 37.4733C101.61 37.4779 101.07 38.0519 101.08 38.8648C101.084 39.6592 101.628 40.2195 102.387 40.2195C103.164 40.2195 103.694 39.6592 103.694 38.8418Z" fill="#1B2433"/>
<path d="M136.85 38.8556C136.85 39.9072 136.104 40.6512 135.062 40.6512C134.011 40.6512 133.247 39.8888 133.252 38.8418C133.257 37.7948 134.029 37.0324 135.076 37.0462C136.123 37.06 136.854 37.8039 136.85 38.8556ZM133.75 38.8556C133.75 39.6684 134.294 40.2195 135.076 40.2149C135.835 40.2103 136.365 39.6455 136.37 38.8464C136.37 38.0381 135.826 37.4687 135.053 37.4733C134.276 37.4733 133.746 38.0427 133.75 38.8556Z" fill="#1B2433"/>
<path d="M124.311 37.0921C124.625 37.0554 124.839 37.1687 124.955 37.432C125.303 38.2172 125.65 39.0071 125.997 39.7924C126.029 39.8705 126.071 39.944 126.107 40.022C126.212 39.944 126.226 39.8337 126.267 39.7419C126.61 38.9704 126.948 38.1989 127.291 37.4274C127.401 37.1794 127.597 37.0615 127.881 37.0738C127.922 37.1472 127.863 37.2023 127.835 37.2575C127.273 38.5203 126.711 39.7832 126.148 41.0461C126.08 41.1977 126.007 41.3446 125.911 41.4778C125.55 41.9875 124.772 42.1023 124.256 41.7487C124.068 41.6202 124.187 41.5283 124.247 41.4089C124.315 41.262 124.379 41.3125 124.48 41.3768C124.942 41.6753 125.371 41.5559 125.65 41.0874C125.828 40.7844 125.86 40.518 125.691 40.1736C125.239 39.2459 124.836 38.2907 124.416 37.3447C124.379 37.2575 124.343 37.1702 124.311 37.0784V37.0921Z" fill="#1B2433"/>
<path d="M145.663 40.0083C145.297 40.495 144.854 40.6695 144.324 40.6512C143.451 40.619 142.948 40.146 142.907 39.2689C142.875 38.5892 142.907 37.9096 142.893 37.2253C142.893 37.0049 143.039 37.0784 143.144 37.0738C143.254 37.0692 143.387 37.0187 143.382 37.2345C143.368 37.7672 143.382 38.2999 143.382 38.8326C143.382 38.9474 143.382 39.0576 143.391 39.1725C143.446 39.8475 143.77 40.1965 144.356 40.2149C145.06 40.2425 145.526 39.8889 145.613 39.2367C145.7 38.603 145.631 37.9647 145.649 37.3263C145.654 37.1013 145.869 36.9727 146.079 37.0738C146.157 37.1105 146.129 37.1748 146.129 37.2299C146.129 38.3045 146.129 39.3791 146.134 40.4491C146.134 40.6787 145.997 40.6144 145.878 40.6236C145.741 40.6374 145.636 40.6236 145.658 40.4353C145.672 40.3159 145.658 40.1965 145.658 40.0037L145.663 40.0083Z" fill="#1B2433"/>
<path d="M79.3935 40.6512C78.8129 40.6466 78.3924 40.5455 77.9901 40.3251C77.7798 40.2103 77.9124 40.1093 77.9672 39.9945C78.0267 39.8613 78.0815 39.8521 78.2141 39.9302C78.6621 40.2057 79.1558 40.27 79.6723 40.2011C79.7912 40.1873 79.91 40.1414 80.0152 40.0863C80.1889 39.9945 80.2712 39.8337 80.262 39.6317C80.2529 39.4434 80.1477 39.3286 79.9877 39.2505C79.7592 39.1403 79.5032 39.1082 79.2609 39.0622C79.0232 39.0163 78.7809 38.975 78.5569 38.8831C78.2232 38.75 78.013 38.5203 77.9855 38.1438C77.9627 37.7672 78.0952 37.4595 78.4198 37.285C79.1192 36.9038 79.8277 36.9957 80.5226 37.3126C80.71 37.3998 80.55 37.4963 80.5134 37.5835C80.4769 37.6662 80.4586 37.7948 80.2986 37.6983C79.9192 37.4687 79.4986 37.4274 79.0643 37.4871C78.8998 37.51 78.7444 37.5651 78.6164 37.6799C78.3604 37.9187 78.4152 38.2999 78.7306 38.4652C78.9958 38.603 79.2975 38.626 79.5855 38.6857C79.782 38.727 79.974 38.7683 80.1614 38.8372C80.4997 38.9658 80.7146 39.1908 80.742 39.5674C80.7648 39.9394 80.6094 40.2287 80.2894 40.4216C79.974 40.6144 79.6175 40.6512 79.3889 40.6512H79.3935Z" fill="#1B2433"/>
<path d="M94.1815 39.0576C94.1815 39.5031 94.1678 39.9485 94.1861 40.394C94.1953 40.6052 94.1175 40.6282 93.9347 40.6374C93.7244 40.6466 93.6924 40.5685 93.697 40.3848C93.7061 39.5031 93.697 38.6214 93.7061 37.7442C93.7061 37.5422 93.6604 37.4549 93.4501 37.4871C93.3907 37.4963 93.3267 37.4825 93.2673 37.4871C93.1027 37.51 93.057 37.4411 93.0616 37.285C93.0616 37.1426 93.0753 37.0692 93.2536 37.0692C93.6833 37.0738 93.6833 37.0646 93.697 36.6237C93.729 35.7649 94.5747 35.2919 95.3289 35.7098C95.4935 35.8017 95.4341 35.8889 95.3884 36.0083C95.3381 36.1323 95.2924 36.1507 95.1598 36.0864C94.8764 35.9532 94.5792 35.9257 94.3324 36.1599C94.0901 36.3941 94.1678 36.711 94.1678 37.0049C94.1678 37.1105 94.273 37.0692 94.3324 37.0738C94.5838 37.0784 94.8352 37.0875 95.0866 37.0738C95.2512 37.0646 95.2466 37.1564 95.2421 37.2666C95.2375 37.3723 95.2832 37.5008 95.0866 37.4917C94.8444 37.4779 94.5975 37.4963 94.3553 37.4871C94.2044 37.4779 94.1678 37.533 94.1678 37.6799C94.177 38.1438 94.1678 38.603 94.1678 39.0668L94.1815 39.0576Z" fill="#1B2433"/>
<path d="M110.734 37.7351C111.027 37.262 111.406 37.0875 111.868 37.0554C111.987 37.0462 112.092 37.0462 112.055 37.2023C112.028 37.308 112.179 37.5008 111.913 37.51C111.209 37.5238 110.771 37.9555 110.757 38.8005C110.748 39.3424 110.743 39.8797 110.757 40.4216C110.761 40.6374 110.661 40.6282 110.505 40.6328C110.336 40.6374 110.263 40.6098 110.263 40.4124C110.272 39.3653 110.277 38.3229 110.263 37.2758C110.263 37.0554 110.368 37.0738 110.515 37.0692C110.675 37.0646 110.757 37.0921 110.734 37.2758C110.716 37.4044 110.734 37.5376 110.734 37.7351Z" fill="#1B2433"/>
<path d="M67.4214 25.2072C67.4306 26.8053 66.8592 28.1325 65.6889 29.1933C64.0296 30.6996 61.4697 30.6813 59.7783 29.2071C57.4378 27.1635 57.4515 23.182 59.8789 21.1292C61.5748 19.6918 64.7564 19.5173 66.562 22.236C67.1609 23.1407 67.4352 24.1464 67.4214 25.2072Z" fill="#FEFEFE"/>
<path d="M157.146 15.1179C158.325 15.1225 159.281 16.0915 159.272 17.2717C159.262 18.4519 158.284 19.4163 157.118 19.4025C155.935 19.3888 154.997 18.429 155.002 17.2395C155.007 16.0501 155.957 15.1133 157.15 15.1179H157.146ZM156.204 17.1569C156.204 17.5564 156.209 17.9605 156.204 18.3601C156.204 18.5208 156.264 18.5805 156.419 18.5713C156.497 18.5667 156.574 18.5667 156.652 18.5713C156.812 18.5851 156.867 18.507 156.858 18.3509C156.849 18.158 156.849 17.9651 156.858 17.7768C156.862 17.6942 156.78 17.5518 156.958 17.5335C157.096 17.5197 157.205 17.5335 157.265 17.6988C157.329 17.8687 157.425 18.0248 157.507 18.1902C157.713 18.6081 157.74 18.6172 158.206 18.5713C158.371 18.5575 158.403 18.4887 158.325 18.3509C158.197 18.1167 158.074 17.8733 157.941 17.6391C157.873 17.5197 157.85 17.4554 157.992 17.3498C158.325 17.1064 158.426 16.716 158.293 16.3486C158.17 16.0088 157.832 15.77 157.448 15.7608C157.109 15.7516 156.771 15.7654 156.433 15.7562C156.264 15.7516 156.204 15.8067 156.209 15.9813C156.218 16.3716 156.209 16.7665 156.209 17.1569H156.204Z" fill="#FEFEFE"/>
<path d="M70.5481 38.6397C70.1916 38.6397 69.835 38.6351 69.4785 38.6397C69.3322 38.6397 69.2865 38.6168 69.323 38.4515C69.4465 37.8545 69.9402 37.4503 70.5527 37.4595C71.1652 37.4687 71.6635 37.882 71.7732 38.4698C71.7961 38.5892 71.7824 38.6397 71.6407 38.6397C71.275 38.6306 70.9093 38.6397 70.5436 38.6397H70.5481Z" fill="#FEFEFE"/>
<path d="M50.3341 38.8739C50.325 39.6822 49.7764 40.2287 48.9947 40.2195C48.2313 40.2057 47.7102 39.6271 47.7194 38.8051C47.7285 38.0152 48.2816 37.4641 49.0496 37.4733C49.8221 37.4825 50.3433 38.0519 50.3341 38.8739Z" fill="#FEFEFE"/>
<path d="M103.694 38.8418C103.694 39.6592 103.164 40.2195 102.387 40.2195C101.623 40.2195 101.084 39.6592 101.079 38.8648C101.075 38.0565 101.61 37.4825 102.378 37.4733C103.155 37.4687 103.69 38.0244 103.694 38.8418Z" fill="#FEFEFE"/>
<path d="M133.75 38.8556C133.75 38.0381 134.276 37.4733 135.053 37.4733C135.826 37.4733 136.37 38.0381 136.37 38.8464C136.37 39.6455 135.835 40.2103 135.076 40.2149C134.294 40.2195 133.755 39.6638 133.75 38.8556Z" fill="#FEFEFE"/>
<path d="M156.204 17.1569C156.204 16.7665 156.213 16.3716 156.204 15.9813C156.2 15.8067 156.259 15.7516 156.428 15.7562C156.767 15.7654 157.105 15.7562 157.443 15.7608C157.832 15.77 158.165 16.0088 158.289 16.3486C158.421 16.716 158.321 17.1018 157.987 17.3498C157.845 17.4554 157.868 17.5197 157.937 17.6391C158.069 17.8733 158.193 18.1121 158.321 18.3509C158.398 18.4887 158.366 18.553 158.202 18.5713C157.736 18.6172 157.708 18.6035 157.503 18.1902C157.42 18.0248 157.324 17.8687 157.26 17.6988C157.201 17.5381 157.096 17.5197 156.954 17.5335C156.771 17.5518 156.858 17.6896 156.853 17.7769C156.84 17.9697 156.844 18.158 156.853 18.3509C156.863 18.507 156.808 18.5805 156.648 18.5713C156.57 18.5667 156.492 18.5667 156.415 18.5713C156.259 18.5805 156.2 18.5254 156.2 18.3601C156.209 17.9605 156.2 17.561 156.2 17.1569H156.204ZM157.219 16.9778C157.324 16.9732 157.429 16.9778 157.53 16.9594C157.662 16.9365 157.745 16.8446 157.768 16.716C157.795 16.5737 157.754 16.4451 157.621 16.3808C157.393 16.2706 157.141 16.3395 156.904 16.3395C156.885 16.3395 156.853 16.3716 156.853 16.39C156.853 16.5737 156.821 16.7665 156.876 16.9319C156.913 17.0375 157.096 16.9548 157.215 16.9778H157.219Z" fill="#060606"/>
<path d="M157.219 16.9778C157.105 16.9502 156.917 17.0375 156.881 16.9319C156.826 16.7665 156.858 16.5737 156.858 16.39C156.858 16.3716 156.89 16.3395 156.908 16.3395C157.15 16.3395 157.397 16.2752 157.626 16.3808C157.758 16.4405 157.8 16.5737 157.772 16.716C157.749 16.8492 157.667 16.941 157.534 16.9594C157.434 16.9778 157.329 16.9732 157.224 16.9778H157.219Z" fill="#FEFEFE"/>
</g>
<defs>
<clipPath id="clip0_2482_1196">
<rect width="327" height="49" fill="white"/>
</clipPath>
</defs>
</svg>
