<svg version="1.2" xmlns="http://www.w3.org/2000/svg" viewBox="0 0 125 40" width="125" height="40">
	<style>
		.s0 { fill: #896b3b } 
	</style>
	<path class="s0" d="m8.98 5h-4.98v0.71c0.43 0 0.71 0.43 0.71 0.86v8c0 0.43-0.28 0.86-0.71 0.86v0.71h2.99v-0.71c-0.43 0-0.72-0.43-0.72-0.86v-2.28h2.71c2.55 0 3.83-1.58 3.83-3.72 0-2.14-1.42-3.43-3.83-3.57zm0 6h-2.85v-4.71h2.7c1.57 0 2.42 1 2.42 2.28 0 1.29-0.71 2.43-2.27 2.43zm10.51-5.29v-0.71h-2.98v0.71c0.43 0 0.71 0.43 0.71 0.86v8c0 0.43-0.28 0.86-0.71 0.86v0.71h2.98v-0.71c-0.42 0-0.71-0.43-0.71-0.86v-8c0-0.43 0.29-0.86 0.71-0.86zm44.64 0v-0.71h-2.56l-3.98 9.14-3.98-9.14h-2.56v0.71c0.43 0 0.71 0.43 0.71 0.86v8c0 0.43-0.28 0.86-0.71 0.86v0.71h2.99v-0.71c-0.43 0-0.71-0.43-0.71-0.86l-0.14-7h0.14l3.98 8.57h1.28c0-0.71 0.28-1.14 0.57-2l2.84-6.71h0.14l-0.14 7.14c0 0.43-0.28 0.86-0.71 0.86v0.71h2.98v-0.71c-0.42 0-0.71-0.43-0.71-0.86v-8c-0.14-0.43 0.15-0.86 0.57-0.86zm-31.84 8.86l-1.85-3c1.56-0.43 2.42-1.71 2.42-3.28 0-2.15-1.28-3.29-3.84-3.29h-4.98v0.57c0.43 0 0.71 0.43 0.71 0.86v8c0 0.43-0.28 0.86-0.71 0.86v0.71h2.99v-0.71c-0.43 0-0.71-0.43-0.71-0.86v-2.57h2.56l2.7 4.28h2.13v-0.71c-0.28 0-0.99-0.14-1.42-0.86zm-5.97-4v-4.28h2.7c1.42 0 2.27 0.71 2.27 2 0 1.28-0.71 2.14-2.27 2.14h-2.7z"/>
	<path class="s0" d="m88.87 13.57c-0.29 0.86-1 1.29-2.42 1.29h-2.56v-8.29c0-0.43 0.29-0.86 0.71-0.86v-0.71h-2.98v0.71c0.42 0 0.71 0.43 0.71 0.86v8c0 0.43-0.29 0.86-0.71 0.86v0.71h7.1l0.72-2.43zm-42.22 1l-3.56-9.57h-2.84l0.14 0.72h0.14c0.43 0 0.71 0.43 0.57 0.71l-2.98 8c-0.29 0.72-0.86 0.86-1 0.86v0.57h2.99v-0.71c-0.43 0-0.86-0.15-0.57-0.86l0.42-1.29h4.84l0.42 1.29c0.29 0.71-0.28 0.86-0.56 0.86v0.57h3.12v-0.72c-0.28 0.43-0.85 0.29-1.13-0.43zm-6.4-2.57l1.85-5.28 1.84 5.28zm37.11 2.57l-3.56-9.57h-2.98l0.14 0.72h0.14c0.43 0 0.71 0.43 0.57 0.71l-2.98 8c-0.29 0.72-0.86 0.86-1 0.86v0.57h2.84v-0.71c-0.42 0-0.85-0.15-0.57-0.86l0.43-1.29h4.83l0.43 1.29c0.29 0.71-0.28 0.86-0.57 0.86v0.57h3.13v-0.72c-0.14 0.43-0.57 0.29-0.85-0.43zm-6.4-2.57l1.85-5.28h0.14l1.85 5.28zm-25.45 11.43v-0.71h-2.98v0.71c0.42 0 0.71 0.43 0.71 0.86v3.28h-5.97v-3.28c0-0.43 0.28-0.86 0.71-0.86v-0.71h-2.99v0.71c0.43 0 0.71 0.43 0.71 0.86v8c0 0.43-0.28 0.86-0.71 0.86v0.71h2.99v-0.71c-0.43 0-0.71-0.43-0.71-0.86v-3.43h5.97v3.43c0 0.43-0.29 0.86-0.71 0.86v0.71h2.98v-0.71c-0.42 0-0.71-0.43-0.71-0.86v-8c0-0.29 0.43-0.86 0.71-0.86zm-14.92 8.86l-3.56-9.57h-2.98l0.14 0.71h0.14c0.43 0 0.71 0.43 0.57 0.72l-2.99 8c-0.28 0.71-0.71 0.85-0.99 0.85v0.57h2.98v-0.71c-0.42 0-0.85-0.14-0.56-0.86l0.42-1.28h4.84l0.42 1.28c0.29 0.72-0.28 0.86-0.57 0.86v0.57h3.13v-0.71c-0.28 0.43-0.71 0.28-0.99-0.43zm-6.4-2.57l1.85-5.29 1.85 5.29c0.14 0-3.7 0-3.7 0zm34.83 2.57l-3.56-9.57h-2.98l0.14 0.71h0.14c0.43 0 0.71 0.43 0.57 0.72l-2.98 8c-0.29 0.71-0.86 0.85-1 0.85v0.57h2.99v-0.71c-0.43 0-0.86-0.14-0.57-0.86l0.42-1.28h4.84l0.42 1.28c0.29 0.72-0.28 0.86-0.57 0.86v0.57h3.13v-0.71c-0.28 0.43-0.71 0.28-0.99-0.43zm-6.4-2.57l1.85-5.29h0.14l1.85 5.29z"/>
	<path class="s0" d="m70.81 31.43c-0.28 0.86-0.99 1.28-2.41 1.28h-2.56v-8.28c0-0.43 0.28-0.86 0.71-0.86v-0.71h-2.99v0.71c0.43 0 0.71 0.43 0.71 0.86v8c0 0.43-0.28 0.86-0.71 0.86v0.71h7.11l0.71-2.43zm-53.73-8v-0.71h-2.56l-3.98 9.14-3.98-9.14h-2.56v0.71c0.43 0 0.71 0.43 0.71 0.86v8c0 0.43-0.28 0.86-0.71 0.86v0.71h2.98v-0.71c-0.42 0-0.71-0.43-0.71-0.86l-0.14-7 3.98 8.57h1.28c0-0.71 0.29-1.14 0.57-2l2.98-6.71h0.15l-0.15 7.14c0 0.43-0.28 0.86-0.71 0.86v0.71h2.85v-0.71c-0.43 0-0.71-0.43-0.71-0.86v-8c0-0.29 0.42-0.86 0.71-0.86zm105.62 0v-0.71h-2.99v0.71c0.43 0 0.71 0.57 0.71 0.86v8c0 0.43-0.28 0.86-0.71 0.86v0.71h2.99v-0.71c-0.43 0-0.71-0.43-0.71-0.86v-8c-0.14-0.29 0.28-0.86 0.71-0.86zm-38.24 8.86l-3.56-9.57h-2.98l0.14 0.71h0.14c0.43 0 0.71 0.43 0.57 0.72l-2.98 8c-0.29 0.71-0.86 0.85-1 0.85v0.57h2.85v-0.71c-0.43 0-0.86-0.14-0.57-0.86l0.42-1.28h4.84l0.42 1.28c0.29 0.72-0.28 0.86-0.57 0.86v0.57h3.13v-0.71c-0.14 0.43-0.57 0.28-0.85-0.43zm-6.4-2.57l1.85-5.29h0.14l1.85 5.29zm37.1-6.29v-0.71h-2.56l-3.98 9.14-3.98-9.14h-2.56v0.71c0.43 0 0.72 0.57 0.72 0.86v8c0 0.43-0.29 0.86-0.72 0.86v0.71h2.99v-0.71c-0.43 0-0.71-0.43-0.71-0.86l-0.14-7h0.14l3.98 8.57h1.28c0-0.71 0.28-1.14 0.57-2l2.98-6.71-0.14 7.14c0 0.43-0.28 0.86-0.71 0.86v0.71h2.84v-0.71c-0.42 0-0.71-0.43-0.71-0.86v-8c-0.14-0.29 0.29-0.86 0.71-0.86zm-18.19 8.86l-2.85-4.14 2.56-3.86c0.43-0.72 1-0.86 1.57-0.86v-0.71h-3.27v0.71c0.42 0 0.71 0.29 0.28 0.86l-1.71 2.71-1.84-2.71c-0.43-0.57-0.15-0.86 0.28-0.86v-0.71h-3.27v0.71c0.57 0 1 0.29 1.42 0.86l2.56 3.86-2.7 4.14c-0.43 0.71-0.99 0.86-1.42 0.86v0.57h3.27v-0.72c-0.29 0-0.57-0.28-0.29-0.85l1.71-2.86 1.99 3c0.43 0.57 0.14 0.86-0.28 0.86v0.71h3.27v-0.71q-0.64 0-1.28-0.86z"/>
</svg>